<svg width="36" height="36" viewBox="0 0 36 36" fill="none" xmlns="http://www.w3.org/2000/svg">
<circle cx="18" cy="18" r="18" fill="#9E4537"/>
<path d="M18.1835 9.80664C16.9704 9.80664 15.5527 10.1599 14.3932 11.0782C13.2337 11.9965 12.386 13.5141 12.386 15.6115C12.386 17.8306 13.7793 19.9937 15.1069 21.6526C16.4345 23.3139 17.7621 24.4758 17.7621 24.4758C18.0057 24.6902 18.3686 24.6902 18.6122 24.4758C18.6122 24.4758 19.9398 23.3139 21.2674 21.6526C22.595 19.9937 23.9883 17.8306 23.9883 15.6115C23.9883 13.5117 23.1406 11.9965 21.9811 11.0782C20.8216 10.1599 19.3966 9.80664 18.1835 9.80664ZM18.1835 11.0977C19.1457 11.0977 20.3076 11.3924 21.1797 12.0867C22.0566 12.7785 22.6997 13.843 22.6997 15.6115C22.6997 17.2581 21.5353 19.2995 20.2638 20.8438C19.1847 22.1544 18.6829 22.6147 18.1884 23.1092C17.7255 22.6318 17.1336 22.1056 16.1105 20.8438C14.8487 19.2897 13.6746 17.2581 13.6746 15.6115C13.6746 13.843 14.3177 12.7785 15.1922 12.0867C16.0691 11.3924 17.2237 11.0952 18.1835 11.0952V11.0977ZM18.1835 12.3985C16.4126 12.3985 14.9632 13.8527 14.9632 15.6261C14.9632 17.397 16.4126 18.8464 18.1835 18.8464C19.9569 18.8464 21.4111 17.397 21.4111 15.6261C21.4079 14.771 21.0668 13.952 20.4622 13.3474C19.8576 12.7428 19.0385 12.4017 18.1835 12.3985ZM18.1835 13.6895C19.2602 13.6895 20.1225 14.5494 20.1225 15.6261C20.1231 15.8804 20.0734 16.1324 19.976 16.3674C19.8787 16.6024 19.7357 16.8158 19.5554 16.9952C19.3751 17.1746 19.161 17.3165 18.9255 17.4126C18.6901 17.5087 18.4378 17.5573 18.1835 17.5553C17.9298 17.5566 17.6783 17.5076 17.4437 17.4111C17.209 17.3146 16.9958 17.1725 16.8164 16.9931C16.637 16.8137 16.495 16.6005 16.3985 16.3659C16.302 16.1312 16.253 15.8798 16.2542 15.6261C16.2526 15.3719 16.3014 15.12 16.3977 14.8848C16.494 14.6496 16.6359 14.4358 16.8153 14.2557C16.9946 14.0757 17.2079 13.9329 17.4427 13.8357C17.6776 13.7386 17.9293 13.6889 18.1835 13.6895ZM14.9486 22.851C14.9347 22.8529 14.9209 22.8554 14.9072 22.8583C13.509 23.0021 12.4493 23.2115 11.7332 23.5233C11.3751 23.6792 11.0511 23.8303 10.8562 24.2517C10.758 24.4829 10.7537 24.7432 10.844 24.9776C10.9342 25.1993 11.0852 25.3479 11.2387 25.4648C11.8525 25.9276 12.7319 26.1103 13.9304 26.2881C15.1288 26.466 16.6075 26.5683 18.1835 26.5683C19.762 26.5683 21.2382 26.466 22.4366 26.2881C23.6375 26.1103 24.5193 25.9276 25.1356 25.4648C25.3092 25.3436 25.4458 25.1766 25.5303 24.9825C25.6196 24.7461 25.6144 24.4843 25.5156 24.2517C25.3208 23.8278 24.9992 23.6792 24.6387 23.5209C23.925 23.2116 22.8702 23.0021 21.472 22.8583C20.6511 22.7901 20.4538 23.991 21.338 24.1421C22.4561 24.2566 23.3939 24.4393 23.9347 24.6293C23.5596 24.7657 23.0091 24.8996 22.2466 25.0117C21.131 25.1773 19.706 25.2797 18.1835 25.2797C16.6635 25.2797 15.2385 25.1773 14.1228 25.0117C13.5476 24.9394 12.9807 24.8122 12.4298 24.6317C13.2806 24.384 14.1536 24.22 15.0363 24.1421C15.8767 24.0154 15.7622 22.8583 14.9486 22.851Z" fill="white"/>
</svg>
