<svg width="37" height="37" viewBox="0 0 37 37" fill="none" xmlns="http://www.w3.org/2000/svg">
<circle cx="18.5" cy="18.5" r="18.5" fill="#9E4537"/>
<g clip-path="url(#clip0_126_554)">
<path d="M25.7879 25.7542H11.5986C10.8521 25.7533 10.1366 25.4564 9.60877 24.9286C9.08098 24.4009 8.78408 23.6853 8.7832 22.9389V14.4465C8.78408 13.7 9.08098 12.9845 9.60877 12.4567C10.1366 11.9289 10.8521 11.632 11.5986 11.6311H25.7879C26.5343 11.632 27.2499 11.9289 27.7777 12.4567C28.3055 12.9845 28.6024 13.7 28.6033 14.4465V22.9389C28.6024 23.6853 28.3055 24.4009 27.7777 24.9286C27.2499 25.4564 26.5343 25.7533 25.7879 25.7542ZM11.5986 12.6248C11.1154 12.6248 10.6521 12.8167 10.3104 13.1583C9.96878 13.5 9.77686 13.9633 9.77686 14.4465V22.9389C9.77686 23.422 9.96878 23.8854 10.3104 24.227C10.6521 24.5686 11.1154 24.7606 11.5986 24.7606H25.7879C26.271 24.7606 26.7344 24.5686 27.076 24.227C27.4177 23.8854 27.6096 23.422 27.6096 22.9389V14.4465C27.6096 13.9633 27.4177 13.5 27.076 13.1583C26.7344 12.8167 26.271 12.6248 25.7879 12.6248H11.5986Z" fill="white"/>
<path d="M18.6933 20.7066C18.0804 20.7076 17.4839 20.5087 16.9942 20.1402L9.26024 14.2909C9.2056 14.2526 9.15925 14.2036 9.12395 14.147C9.08865 14.0903 9.06514 14.0271 9.05481 13.9611C9.04448 13.8952 9.04755 13.8278 9.06384 13.7631C9.08012 13.6983 9.10929 13.6375 9.14959 13.5843C9.18989 13.5311 9.24051 13.4866 9.29842 13.4533C9.35632 13.4201 9.42033 13.3989 9.48661 13.391C9.5529 13.383 9.6201 13.3885 9.68421 13.4072C9.74832 13.4258 9.80802 13.4571 9.85975 13.4993L17.5937 19.3553C17.9113 19.5923 18.297 19.7204 18.6933 19.7204C19.0896 19.7204 19.4754 19.5923 19.793 19.3553L27.5269 13.4993C27.5786 13.4571 27.6383 13.4258 27.7024 13.4072C27.7665 13.3885 27.8337 13.383 27.9 13.391C27.9663 13.3989 28.0303 13.4201 28.0882 13.4533C28.1461 13.4866 28.1967 13.5311 28.237 13.5843C28.2773 13.6375 28.3065 13.6983 28.3228 13.7631C28.3391 13.8278 28.3422 13.8952 28.3318 13.9611C28.3215 14.0271 28.298 14.0903 28.2627 14.147C28.2274 14.2036 28.181 14.2526 28.1264 14.2909L20.3925 20.1402C19.9027 20.5087 19.3062 20.7076 18.6933 20.7066Z" fill="white"/>
<path d="M9.47412 24.3698C9.37335 24.37 9.27493 24.3395 9.19189 24.2824C9.10886 24.2253 9.04515 24.1443 9.00922 24.0502C8.97329 23.956 8.96683 23.8532 8.99071 23.7553C9.01458 23.6574 9.06766 23.5691 9.1429 23.5021L15.2373 18.0668C15.3357 17.9789 15.4649 17.9338 15.5966 17.9412C15.7283 17.9487 15.8516 18.0081 15.9395 18.1065C16.0273 18.2049 16.0725 18.3342 16.065 18.4658C16.0576 18.5975 15.9981 18.7209 15.8997 18.8087L9.80534 24.244C9.71483 24.3263 9.59647 24.3713 9.47412 24.3698ZM27.9097 24.3698C27.7873 24.3713 27.669 24.3263 27.5785 24.244L21.4841 18.8087C21.3857 18.7209 21.3262 18.5975 21.3188 18.4658C21.3113 18.3342 21.3565 18.2049 21.4443 18.1065C21.5322 18.0081 21.6555 17.9487 21.7872 17.9412C21.9189 17.9338 22.0481 17.9789 22.1465 18.0668L28.2376 23.5021C28.3128 23.5691 28.3659 23.6574 28.3898 23.7553C28.4137 23.8532 28.4072 23.956 28.3713 24.0502C28.3353 24.1443 28.2716 24.2253 28.1886 24.2824C28.1056 24.3395 28.0071 24.37 27.9064 24.3698H27.9097Z" fill="white"/>
</g>
<defs>
<clipPath id="clip0_126_554">
<rect width="21.1979" height="21.1979" fill="white" transform="translate(8.09375 8.09375)"/>
</clipPath>
</defs>
</svg>
