<svg width="36" height="36" viewBox="0 0 36 36" fill="none" xmlns="http://www.w3.org/2000/svg">
<circle cx="18" cy="18" r="18" fill="#9E4537"/>
<path d="M22.466 21.0184C22.3059 20.8578 22.1158 20.7304 21.9064 20.6434C21.697 20.5565 21.4725 20.5117 21.2458 20.5117C21.019 20.5117 20.7945 20.5565 20.5852 20.6434C20.3758 20.7304 20.1856 20.8578 20.0256 21.0184L19.1929 21.851C18.2555 21.2561 17.3869 20.5589 16.6032 19.7724C15.8183 18.9872 15.1213 18.1188 14.5245 17.1826L15.3572 16.35C15.5178 16.19 15.6452 15.9998 15.7321 15.7904C15.8191 15.581 15.8638 15.3565 15.8638 15.1298C15.8638 14.9031 15.8191 14.6786 15.7321 14.4692C15.6452 14.2598 15.5178 14.0696 15.3572 13.9096L13.7321 12.2903C13.5743 12.1292 13.3858 12.0014 13.1776 11.9146C12.9695 11.8278 12.746 11.7837 12.5205 11.785C12.2934 11.7844 12.0684 11.8288 11.8585 11.9155C11.6486 12.0022 11.4579 12.1296 11.2974 12.2903L10.5165 13.0655C10.1443 13.4657 9.86646 13.9442 9.70349 14.4659C9.54053 14.9876 9.49654 15.5392 9.57477 16.0801C9.75852 18.2335 11.1711 20.8232 13.3474 23.0052C15.5237 25.1872 18.1421 26.5941 20.2954 26.8008C20.4561 26.8094 20.6171 26.8094 20.7778 26.8008C21.2413 26.8203 21.7041 26.747 22.1389 26.5853C22.5737 26.4236 22.9719 26.1767 23.3101 25.8591L24.0853 25.0781C24.246 24.9176 24.3733 24.727 24.4601 24.5171C24.5468 24.3072 24.5911 24.0822 24.5906 23.8551C24.5919 23.6295 24.5478 23.4061 24.461 23.1979C24.3742 22.9898 24.2464 22.8012 24.0853 22.6435L22.466 21.0184ZM23.2756 24.2685L22.4947 25.0437C22.2059 25.2843 21.8689 25.4601 21.5063 25.5592C21.1437 25.6583 20.7641 25.6783 20.3931 25.6179C18.5268 25.4571 16.1496 24.1364 14.1857 22.1726C12.2219 20.2088 10.9012 17.8487 10.7232 15.9825C10.6613 15.6115 10.6806 15.2315 10.7797 14.8687C10.8788 14.5059 11.0555 14.1688 11.2974 13.8809L12.1071 13.0999C12.1607 13.0467 12.2244 13.0046 12.2943 12.976C12.3643 12.9475 12.4392 12.933 12.5148 12.9334C12.5903 12.933 12.6653 12.9475 12.7352 12.976C12.8052 13.0046 12.8688 13.0467 12.9225 13.0999L14.5475 14.7422C14.6545 14.8498 14.7145 14.9953 14.7145 15.147C14.7145 15.2987 14.6545 15.4443 14.5475 15.5519L13.3991 16.7003C13.3092 16.7897 13.2515 16.9064 13.2348 17.0321C13.2182 17.1577 13.2437 17.2854 13.3072 17.3951C13.9948 18.5656 14.8304 19.6425 15.7936 20.5992C16.7503 21.5624 17.8272 22.398 18.9977 23.0856C19.1074 23.1491 19.2351 23.1746 19.3607 23.158C19.4864 23.1413 19.6031 23.0836 19.6925 22.9937L20.8409 21.8453C20.9485 21.7383 21.0941 21.6783 21.2458 21.6783C21.3975 21.6783 21.543 21.7383 21.6506 21.8453L23.2756 23.4703C23.3289 23.524 23.371 23.5876 23.3995 23.6576C23.4281 23.7275 23.4426 23.8025 23.4422 23.878C23.4386 24.0247 23.379 24.1644 23.2756 24.2685ZM24.2748 12.0951C23.4768 11.294 22.5281 10.6588 21.4834 10.2262C20.4387 9.79354 19.3188 9.57197 18.1881 9.57424C18.0358 9.57424 17.8897 9.63473 17.782 9.74242C17.6743 9.85011 17.6138 9.99616 17.6138 10.1485C17.6138 10.3007 17.6743 10.4468 17.782 10.5545C17.8897 10.6622 18.0358 10.7227 18.1881 10.7227C19.1737 10.7226 20.1496 10.9178 21.0594 11.2969C21.9692 11.676 22.7949 12.2315 23.489 12.9314C24.183 13.6312 24.7315 14.4616 25.1029 15.3746C25.4743 16.2876 25.6612 17.2651 25.6529 18.2507C25.6529 18.403 25.7134 18.549 25.8211 18.6567C25.9288 18.7644 26.0748 18.8249 26.2271 18.8249C26.3794 18.8249 26.5255 18.7644 26.6332 18.6567C26.7408 18.549 26.8013 18.403 26.8013 18.2507C26.8123 17.1079 26.5944 15.9746 26.1605 14.9174C25.7266 13.8602 25.0854 12.9005 24.2748 12.0951Z" fill="white"/>
<path d="M21.0071 15.3797C21.3329 15.7036 21.5907 16.0894 21.7653 16.5144C21.9398 16.9394 22.0276 17.3951 22.0234 17.8545C22.0234 18.0068 22.0839 18.1529 22.1916 18.2606C22.2993 18.3683 22.4454 18.4288 22.5977 18.4288C22.7499 18.4288 22.896 18.3683 23.0037 18.2606C23.1114 18.1529 23.1719 18.0068 23.1719 17.8545C23.1795 17.2465 23.0663 16.6429 22.8388 16.0789C22.6114 15.515 22.2742 15.0018 21.8469 14.5691C21.4195 14.1364 20.9106 13.7929 20.3494 13.5585C19.7883 13.324 19.1862 13.2033 18.5781 13.2034C18.4258 13.2034 18.2798 13.2639 18.1721 13.3716C18.0644 13.4792 18.0039 13.6253 18.0039 13.7776C18.0039 13.9299 18.0644 14.0759 18.1721 14.1836C18.2798 14.2913 18.4258 14.3518 18.5781 14.3518C19.0307 14.3552 19.4781 14.4477 19.8948 14.6241C20.3116 14.8005 20.6895 15.0572 21.0071 15.3797Z" fill="white"/>
</svg>
