<?xml version="1.0" standalone="no"?>
<!DOCTYPE svg PUBLIC "-//W3C//DTD SVG 20010904//EN"
 "http://www.w3.org/TR/2001/REC-SVG-20010904/DTD/svg10.dtd">
<svg version="1.0" xmlns="http://www.w3.org/2000/svg"
 width="193.000000pt" height="71.000000pt" viewBox="0 0 193.000000 71.000000"
 preserveAspectRatio="xMidYMid meet">

<g transform="translate(0.000000,71.000000) scale(0.100000,-0.100000)"
fill="#000000" stroke="none">
<path d="M0 355 l0 -355 965 0 965 0 0 355 0 355 -965 0 -965 0 0 -355z m230
195 c23 -23 27 -86 7 -114 -9 -12 -28 -19 -53 -20 l-39 -1 -3 64 c-2 35 -1 70
2 77 8 21 63 17 86 -6z m70 -60 c0 -64 -3 -80 -15 -80 -12 0 -15 16 -15 80 0
64 3 80 15 80 12 0 15 -16 15 -80z m108 68 c7 -7 12 -18 12 -25 0 -18 -27 -16
-34 3 -3 8 -10 12 -16 9 -18 -11 -10 -30 21 -47 24 -14 30 -24 27 -44 -2 -15
-10 -31 -19 -37 -21 -13 -65 -1 -73 20 -9 21 16 37 27 18 4 -8 15 -15 22 -15
21 0 19 29 -2 37 -26 9 -53 34 -53 49 0 35 62 58 88 32z m122 -3 c0 -8 -7 -15
-15 -15 -12 0 -15 -14 -15 -65 0 -51 -3 -65 -15 -65 -12 0 -15 14 -15 65 0 58
-2 65 -20 65 -11 0 -20 7 -20 15 0 11 12 15 50 15 38 0 50 -4 50 -15z m98 3
c6 -7 10 -33 10 -58 -1 -25 2 -56 6 -68 7 -20 5 -23 -10 -20 -12 2 -21 15 -24
33 -7 40 -24 38 -28 -2 -2 -21 -9 -33 -18 -33 -11 0 -14 17 -14 80 l0 80 34 0
c18 0 38 -6 44 -12z m70 -65 c-2 -50 -7 -78 -15 -81 -10 -3 -13 17 -13 77 0
66 3 81 15 81 13 0 15 -13 13 -77z m101 67 c14 -7 18 -22 19 -70 1 -67 -14
-84 -66 -78 -26 3 -27 5 -30 81 l-3 77 31 0 c17 0 39 -4 49 -10z m73 -52 c3
-55 5 -63 23 -63 18 0 20 8 23 63 2 46 7 62 17 62 22 0 21 -117 -2 -142 -20
-22 -51 -23 -75 -1 -24 21 -27 143 -3 143 10 0 15 -16 17 -62z m193 51 c4 -6
-2 -13 -14 -16 -19 -5 -21 -13 -21 -69 0 -50 -3 -64 -15 -64 -12 0 -15 14 -15
64 0 56 -2 64 -21 69 -35 9 -11 27 36 27 24 0 47 -5 50 -11z m101 -3 c14 -11
19 -26 19 -66 0 -40 -5 -55 -19 -66 -48 -34 -96 -1 -96 66 0 67 48 100 96 66z
m122 2 c5 -7 10 -35 10 -63 0 -27 2 -57 3 -65 2 -8 -3 -15 -11 -15 -9 0 -16
11 -18 27 -5 41 -29 43 -37 2 -11 -60 -30 -35 -31 42 -1 38 0 72 3 77 7 12 70
8 81 -5z m120 0 c15 -15 16 -38 1 -38 -6 0 -17 7 -26 15 -14 15 -33 12 -33 -5
0 -4 16 -17 36 -29 28 -17 35 -26 32 -48 -4 -33 -27 -48 -62 -39 -31 8 -45 34
-25 47 9 6 15 4 17 -6 5 -20 42 -19 42 0 0 9 -8 18 -17 22 -68 24 -70 93 -3
93 14 0 31 -5 38 -12z m62 -24 c0 -31 3 -35 23 -32 17 2 23 11 25 36 2 20 9
32 18 32 11 0 14 -17 14 -80 0 -63 -3 -80 -14 -80 -9 0 -16 12 -18 33 -2 24
-8 33 -25 35 -20 3 -23 -1 -23 -32 0 -25 -4 -36 -15 -36 -12 0 -15 16 -15 80
0 64 3 80 15 80 11 0 15 -11 15 -36z m135 -45 c0 -59 -3 -74 -15 -74 -11 0
-16 15 -18 64 -3 71 2 95 21 88 8 -2 12 -27 12 -78z m109 65 c33 -32 14 -84
-31 -84 -19 0 -23 -5 -23 -30 0 -20 -5 -30 -15 -30 -12 0 -15 16 -15 80 l0 80
34 0 c19 0 42 -7 50 -16z m-984 -265 c0 -60 -3 -80 -12 -77 -8 3 -14 28 -16
68 -3 67 1 90 18 90 6 0 10 -32 10 -81z m82 39 l23 -43 3 43 c2 28 8 42 18 42
11 0 14 -17 14 -81 0 -71 -2 -80 -17 -77 -10 2 -28 23 -39 48 l-22 45 -4 -44
c-1 -25 -9 -46 -15 -49 -10 -3 -13 17 -13 77 0 96 16 107 52 39z m154 34 c22
-15 36 -54 30 -88 -8 -39 -38 -64 -78 -64 l-28 0 0 80 0 80 33 0 c17 0 37 -4
43 -8z m79 -73 c0 -59 -3 -74 -15 -74 -11 0 -16 15 -18 64 -3 71 2 95 21 89 8
-3 12 -28 12 -79z m113 7 c26 -89 26 -86 6 -86 -9 0 -18 9 -21 20 -6 23 -43
28 -43 6 0 -18 -16 -29 -29 -22 -7 5 9 75 34 144 12 32 33 7 53 -62z"/>
<path d="M180 490 c0 -37 4 -50 15 -50 18 0 29 41 21 75 -4 14 -13 25 -21 25
-11 0 -15 -13 -15 -50z"/>
<path d="M580 520 c0 -11 7 -20 15 -20 8 0 15 9 15 20 0 11 -7 20 -15 20 -8 0
-15 -9 -15 -20z"/>
<path d="M752 523 c2 -10 10 -18 18 -18 8 0 16 8 18 18 2 12 -3 17 -18 17 -15
0 -20 -5 -18 -17z"/>
<path d="M750 460 c0 -13 7 -20 18 -20 24 0 32 8 25 26 -8 22 -43 17 -43 -6z"/>
<path d="M1115 537 c-5 -15 -9 -56 -7 -79 1 -11 10 -18 22 -18 17 0 20 7 20
49 0 35 -4 51 -15 55 -9 3 -18 0 -20 -7z"/>
<path d="M1237 525 c-7 -16 8 -29 23 -20 15 9 12 35 -4 35 -8 0 -16 -7 -19
-15z"/>
<path d="M1660 516 c0 -19 4 -23 20 -19 11 3 20 14 20 24 0 12 -7 19 -20 19
-14 0 -20 -7 -20 -24z"/>
<path d="M920 290 c0 -44 3 -51 18 -48 25 5 25 91 0 96 -15 3 -18 -4 -18 -48z"/>
<path d="M1116 291 c-4 -7 -5 -15 -2 -18 9 -9 19 4 14 18 -4 11 -6 11 -12 0z"/>
</g>
</svg>
